<?xml version="1.0" encoding="iso-8859-1"?>
<!-- Generator: Adobe Illustrator 19.0.0, SVG Export Plug-In . SVG Version: 6.00 Build 0)  -->
<svg version="1.1" id="Capa_1" xmlns="http://www.w3.org/2000/svg" xmlns:xlink="http://www.w3.org/1999/xlink" x="0px" y="0px"
	 viewBox="0 0 512.002 512.002" style="enable-background:new 0 0 512.002 512.002;" xml:space="preserve">
<linearGradient id="SVGID_1_" gradientUnits="userSpaceOnUse" x1="256.1464" y1="513.938" x2="256.1464" y2="1.6918" gradientTransform="matrix(0.9995 0 0 -0.9995 -0.0233 513.6932)">
	<stop  offset="0" style="stop-color:#2AF598"/>
	<stop  offset="1" style="stop-color:#009EFD"/>
</linearGradient>
<path style="fill:url(#SVGID_1_);" d="M456.613,314.523l-11.31,11.31l-4.286-39.124l33.872-33.873l-28.272-28.271l-11.183,11.183
	l-5.885-53.725l43.281-43.381c22.062-22.062,58.568-93.476,26.214-125.83c-32.354-32.354-103.767,4.151-125.87,26.253
	l-43.038,43.282l-54.018-5.917l11.183-11.184l-28.272-28.271l-33.872,33.872l-39.124-4.286l11.311-11.311L169.072,26.98
	l-33.999,33.999l-53.827-5.896L0.145,129.696l209.31,74.017l-94.667,95.205l-70.231-0.092L0.263,345.338l107.382,55.501
	l63.352,111.164l44.042-46.243v-68.726l93.452-93.668l73.68,208.357l74.612-81.101l-5.896-53.826l34-34L456.613,314.523z
	 M76.098,114.149l18.851-17.344l199.123,21.813l-53.419,53.721L76.098,114.149z M175.056,380.5v57.879l-38.538-67.623
	l-61.737-31.909l56.611,0.074L401.485,67.298c6.696-6.696,22.528-16.631,39.831-22.664c19.47-6.789,28.33-4.468,29.439-3.57
	c0.938,1.15,3.259,10.013-3.53,29.482c-6.033,17.302-15.968,33.132-22.679,39.844L175.056,380.5z M397.718,435.769l-57.92-163.787
	l53.511-53.634l21.753,198.57L397.718,435.769z"/>
<g>
</g>
<g>
</g>
<g>
</g>
<g>
</g>
<g>
</g>
<g>
</g>
<g>
</g>
<g>
</g>
<g>
</g>
<g>
</g>
<g>
</g>
<g>
</g>
<g>
</g>
<g>
</g>
<g>
</g>
</svg>
